<?xml version="1.0" standalone="no"?>
<!DOCTYPE svg PUBLIC "-//W3C//DTD SVG 20010904//EN"
 "http://www.w3.org/TR/2001/REC-SVG-20010904/DTD/svg10.dtd">
<svg version="1.0" xmlns="http://www.w3.org/2000/svg"
 width="300.000000pt" height="132.000000pt" viewBox="0 0 300.000000 132.000000"
 preserveAspectRatio="xMidYMid meet">
<metadata>
Created by potrace 1.10, written by Peter Selinger 2001-2011
</metadata>
<g transform="translate(0.000000,132.000000) scale(0.100000,-0.100000)"
fill="#000000" stroke="none">
<path d="M495 818 c-154 -258 -281 -473 -283 -478 -2 -5 4 -20 14 -35 l17 -26
67 113 c37 62 168 282 291 488 123 206 225 378 227 381 2 4 -10 11 -25 17
l-29 9 -279 -469z m267 382 c-9 -16 -21 -30 -25 -30 -5 0 1 14 13 30 27 39 34
39 12 0z m-57 -100 c-15 -23 -29 -39 -33 -35 -4 4 -1 10 6 12 6 3 12 9 12 14
0 13 32 61 37 55 2 -2 -7 -23 -22 -46z m-84 -133 c-10 -9 -11 -8 -5 6 3 10 9
15 12 12 3 -3 0 -11 -7 -18z m-51 -97 c0 -5 -5 -10 -11 -10 -5 0 -7 5 -4 10 3
6 8 10 11 10 2 0 4 -4 4 -10z m-36 -52 c-5 -7 -9 -15 -9 -18 0 -3 -11 -23 -25
-45 -14 -22 -33 -53 -42 -70 -10 -16 -18 -23 -18 -16 0 8 10 28 23 45 12 17
33 52 46 79 13 26 26 45 29 43 2 -3 0 -11 -4 -18z m-124 -212 c0 -3 -4 -8 -10
-11 -5 -3 -10 -1 -10 4 0 6 5 11 10 11 6 0 10 -2 10 -4z m-61 -103 c-23 -29
-23 -27 1 21 8 15 16 23 18 17 2 -6 -6 -23 -19 -38z m-80 -130 c-24 -44 -29
-50 -29 -37 0 11 38 74 45 74 2 0 -5 -17 -16 -37z"/>
<path d="M624 1193 c-65 -114 -496 -839 -504 -846 -8 -9 19 -67 31 -67 3 0 10
10 16 23 6 12 131 224 277 470 147 247 266 450 264 452 -2 2 -15 6 -30 10 -23
6 -29 2 -54 -42z m27 -26 c-10 -9 -11 -8 -5 6 3 10 9 15 12 12 3 -3 0 -11 -7
-18z m-35 -55 c-17 -32 -36 -50 -36 -33 0 5 5 13 11 16 5 4 15 18 20 32 5 14
12 23 15 20 3 -3 -2 -19 -10 -35z m-43 -78 c-9 -15 -19 -22 -21 -16 -2 6 3 18
10 26 22 25 30 18 11 -10z m-39 -56 c-5 -7 -9 -16 -9 -19 0 -4 -16 -31 -35
-60 -19 -30 -46 -74 -59 -99 -27 -51 -61 -97 -61 -83 0 5 12 29 28 54 15 24
38 65 52 91 13 26 27 45 30 43 3 -2 16 19 29 47 12 27 25 47 28 44 3 -2 1 -11
-3 -18z m-181 -316 c-10 -15 -20 -29 -24 -32 -4 -3 -19 -29 -35 -57 -15 -29
-32 -53 -37 -53 -10 0 36 84 63 115 10 11 21 30 25 43 3 12 11 20 16 17 5 -3
1 -18 -8 -33z m-119 -199 c-35 -61 -44 -71 -44 -50 0 9 3 17 8 17 4 0 13 15
21 33 12 27 28 46 39 47 2 0 -9 -21 -24 -47z m-64 -107 c0 -2 -8 -10 -17 -17
-16 -13 -17 -12 -4 4 13 16 21 21 21 13z"/>
<path d="M489 1223 c-15 -2 -31 -14 -36 -26 -6 -12 -92 -159 -192 -326 -99
-167 -181 -306 -181 -310 0 -3 9 -17 19 -30 16 -21 19 -22 25 -6 5 15 367 626
404 683 15 24 16 24 -39 15z m-129 -253 c-6 -11 -13 -20 -16 -20 -2 0 0 9 6
20 6 11 13 20 16 20 2 0 0 -9 -6 -20z m-80 -130 c-6 -11 -13 -20 -16 -20 -2 0
0 9 6 20 6 11 13 20 16 20 2 0 0 -9 -6 -20z"/>
<path d="M542 748 l-263 -441 22 -21 c12 -12 23 -16 25 -11 2 6 122 208 265
449 244 409 259 439 242 451 -10 8 -20 15 -23 15 -3 0 -124 -199 -268 -442z
m205 280 c-3 -8 -6 -5 -6 6 -1 11 2 17 5 13 3 -3 4 -12 1 -19z m-24 -33 c-3
-9 -8 -14 -10 -11 -3 3 -2 9 2 15 9 16 15 13 8 -4z m-90 -150 c-3 -9 -8 -14
-10 -11 -3 3 -2 9 2 15 9 16 15 13 8 -4z m-79 -139 c-9 -15 -19 -25 -21 -22
-5 5 30 56 35 51 2 -2 -4 -15 -14 -29z m-93 -149 c-10 -9 -11 -8 -5 6 3 10 9
15 12 12 3 -3 0 -11 -7 -18z m-51 -101 c0 -3 -4 -8 -10 -11 -5 -3 -10 -1 -10
4 0 6 5 11 10 11 6 0 10 -2 10 -4z m-20 -36 c0 -5 -2 -10 -4 -10 -3 0 -8 5
-11 10 -3 6 -1 10 4 10 6 0 11 -4 11 -10z"/>
<path d="M1493 1150 c-97 -21 -187 -90 -230 -178 -24 -50 -28 -69 -28 -147 0
-76 4 -98 26 -145 14 -30 43 -72 63 -93 34 -34 103 -77 124 -77 8 0 52 83 52
100 0 6 -6 10 -13 10 -24 0 -99 73 -118 114 -75 165 79 342 258 297 26 -7 60
-21 75 -33 16 -11 31 -19 32 -17 2 2 15 28 30 56 l26 52 -23 15 c-62 41 -193
63 -274 46z m194 -36 c63 -21 68 -27 53 -63 -14 -36 -15 -36 -55 -14 -21 11
-53 16 -105 16 -100 0 -102 -1 -156 -42 -62 -47 -93 -108 -94 -183 0 -78 27
-135 91 -191 51 -44 52 -47 39 -72 -18 -33 -33 -32 -92 11 -72 53 -111 140
-112 249 0 66 4 89 24 129 40 78 114 144 188 166 47 14 169 11 219 -6z"/>
<path d="M2065 1151 c-48 -20 -55 -40 -58 -174 -2 -118 3 -149 16 -113 3 8 24
20 46 27 l41 12 0 68 c0 84 6 89 124 89 80 0 88 2 115 28 16 15 32 37 36 50
l6 22 -153 -1 c-84 0 -162 -4 -173 -8z m279 -36 c-8 -20 -66 -37 -117 -35 -77
5 -96 0 -121 -27 -20 -21 -24 -36 -23 -75 1 -52 -12 -74 -37 -65 -23 9 -23
163 0 195 14 21 22 22 159 22 122 0 144 -2 139 -15z"/>
<path d="M2633 1150 c-116 -23 -185 -115 -169 -225 15 -96 64 -131 223 -161
99 -18 133 -38 133 -79 0 -30 -30 -62 -65 -71 -56 -14 -170 2 -220 30 -27 14
-49 25 -50 24 -1 -2 -14 -25 -28 -52 -26 -46 -26 -49 -10 -62 72 -55 253 -80
356 -50 100 29 158 119 142 216 -15 90 -62 124 -219 160 -125 28 -158 60 -126
120 21 38 121 52 186 25 20 -8 34 -11 32 -7 -2 4 -19 37 -38 75 -33 64 -36 67
-70 66 -19 -1 -54 -5 -77 -9z m115 -48 c15 -30 11 -35 -27 -38 -109 -7 -151
-35 -151 -100 0 -36 38 -84 66 -84 8 0 14 -5 14 -11 0 -6 6 -9 13 -6 6 2 26 0
42 -5 17 -5 44 -11 60 -12 36 -4 115 -37 115 -48 0 -5 9 -17 20 -28 15 -15 20
-33 20 -73 0 -92 -38 -142 -129 -172 -90 -29 -258 -7 -310 41 -13 12 -13 17
-1 39 9 17 20 24 30 21 8 -3 40 -14 70 -25 60 -22 161 -22 203 0 76 41 76 120
0 163 -6 3 -55 15 -108 26 -152 31 -185 61 -185 167 0 62 25 118 58 130 9 4
19 9 22 13 15 17 61 29 110 28 47 -2 57 -5 68 -26z"/>
<path d="M351 1132 c-27 -14 -58 -58 -170 -247 -130 -220 -136 -232 -131 -274
l5 -44 159 269 c88 148 166 279 174 292 17 26 9 27 -37 4z m-61 -122 c0 -5 -5
-10 -11 -10 -5 0 -7 5 -4 10 3 6 8 10 11 10 2 0 4 -4 4 -10z"/>
<path d="M296 783 l-218 -366 16 -35 17 -35 48 84 c27 46 134 227 238 402
l190 317 -36 0 -36 0 -219 -367z m214 272 c-12 -24 -26 -42 -31 -40 -4 3 -13
-10 -19 -29 -6 -19 -20 -46 -31 -60 -11 -14 -20 -29 -21 -33 -2 -21 -22 -52
-29 -47 -5 3 -9 -1 -9 -9 0 -8 -11 -35 -25 -58 -19 -34 -25 -39 -25 -22 0 12
7 29 16 37 8 9 13 16 9 16 -3 0 2 13 11 29 10 17 21 28 26 25 4 -3 8 1 8 9 0
15 67 147 80 157 3 3 16 22 29 43 31 52 40 38 11 -18z m-210 -336 c-28 -62
-173 -309 -182 -309 -14 0 -8 15 26 67 18 28 40 64 48 80 22 43 42 77 49 83 4
3 14 21 23 40 31 64 41 80 44 72 1 -5 -2 -20 -8 -33z"/>
<path d="M2798 1123 c11 -16 31 -52 46 -80 14 -29 28 -53 31 -53 3 0 16 22 30
49 28 57 27 59 -53 90 -69 27 -77 26 -54 -6z m91 -37 c9 -10 8 -16 -3 -25 -12
-10 -17 -8 -25 7 -16 30 6 44 28 18z"/>
<path d="M794 1032 c-31 -53 -154 -259 -272 -457 l-214 -359 23 -18 c12 -11
25 -15 29 -11 4 4 74 121 155 258 81 138 201 339 266 449 66 109 119 199 119
201 0 1 -11 10 -24 18 -24 16 -24 16 -82 -81z m59 27 c-10 -16 -21 -29 -25
-29 -4 0 -7 -3 -6 -7 4 -16 -14 -53 -23 -48 -5 4 -9 -2 -9 -12 0 -10 -9 -29
-20 -43 -11 -14 -20 -32 -20 -41 0 -8 -8 -24 -18 -35 -9 -10 -23 -32 -29 -47
-7 -15 -20 -30 -28 -33 -8 -4 -12 -10 -9 -15 6 -10 -20 -52 -27 -44 -3 2 -11
-11 -18 -30 -7 -19 -17 -35 -22 -35 -5 0 -9 -10 -9 -22 0 -15 -3 -19 -10 -12
-7 7 0 28 23 67 19 31 37 54 41 50 5 -6 9 14 4 20 -3 3 43 80 52 87 4 3 9 13
13 23 4 10 11 15 17 12 6 -3 7 0 4 9 -3 8 3 28 13 43 10 15 25 40 32 55 8 15
18 25 23 22 4 -3 8 3 8 14 0 10 9 28 20 40 11 12 20 28 20 37 0 9 5 13 10 10
7 -4 4 -17 -7 -36z m-304 -516 c-31 -64 -69 -119 -70 -102 -1 13 -7 2 -24 -48
-4 -13 -11 -23 -16 -23 -5 0 -9 -6 -9 -14 0 -7 -6 -26 -14 -40 -11 -23 -15
-24 -20 -10 -4 10 -3 20 1 23 5 3 22 32 38 65 17 32 40 68 52 80 13 11 23 29
23 39 0 10 5 15 10 12 6 -3 10 2 10 12 0 21 29 67 37 59 3 -3 -5 -27 -18 -53z
m-166 -282 c-5 -3 -13 -15 -18 -26 -7 -17 -9 -18 -12 -3 -2 9 4 29 14 44 15
24 18 25 21 10 2 -10 0 -21 -5 -25z"/>
<path d="M230 1062 c-90 -78 -159 -204 -175 -317 l-7 -50 50 85 c27 47 82 138
121 204 40 65 70 120 68 122 -1 2 -27 -18 -57 -44z m-59 -115 c-10 -9 -11 -8
-5 6 3 10 9 15 12 12 3 -3 0 -11 -7 -18z m-40 -64 c-12 -20 -14 -14 -5 12 4 9
9 14 11 11 3 -2 0 -13 -6 -23z"/>
<path d="M950 843 c-57 -98 -169 -286 -247 -418 -79 -131 -143 -241 -143 -243
0 -2 16 -2 35 0 35 3 36 5 264 393 224 381 229 391 215 417 -8 16 -16 28 -17
28 -1 0 -49 -80 -107 -177z m100 102 c-6 -15 -13 -25 -16 -23 -2 3 1 17 7 32
16 34 23 27 9 -9z m-25 -34 c3 -5 1 -12 -5 -16 -5 -3 -10 1 -10 9 0 18 6 21
15 7z m-15 -41 c0 -5 -4 -10 -10 -10 -5 0 -10 5 -10 10 0 6 5 10 10 10 6 0 10
-4 10 -10z m-31 -53 c-16 -30 -16 -30 -23 -12 -3 9 -2 13 4 10 6 -3 10 3 10
15 0 12 5 18 10 15 7 -4 6 -14 -1 -28z m-50 -81 c-12 -22 -27 -44 -31 -47 -5
-3 -10 -12 -12 -20 -1 -8 -18 -42 -39 -77 -20 -35 -37 -67 -37 -71 0 -5 -6
-11 -13 -14 -7 -2 -22 -23 -32 -46 -11 -22 -24 -41 -28 -41 -5 0 -7 3 -5 8 38
80 62 122 66 117 8 -7 31 28 32 48 0 9 5 17 10 17 6 0 10 7 10 17 0 9 10 30
23 47 12 17 34 52 47 79 14 26 27 42 29 36 2 -6 -7 -30 -20 -53z m-238 -411
c-23 -37 -41 -70 -41 -74 0 -4 -11 -18 -25 -31 -14 -13 -25 -18 -25 -12 0 14
40 81 40 67 1 -11 20 20 21 32 1 21 55 101 62 94 5 -5 -10 -39 -32 -76z"/>
<path d="M709 733 c-85 -142 -208 -349 -275 -460 l-121 -202 28 -10 29 -10
129 217 c71 119 190 320 265 446 75 125 136 232 136 236 0 4 -8 15 -19 24 -18
16 -24 7 -172 -241z m161 200 c0 -12 -51 -93 -75 -119 -14 -15 -25 -33 -25
-40 0 -8 -4 -14 -10 -14 -15 0 -12 9 10 37 11 14 20 33 20 41 0 8 3 12 7 8 7
-6 34 37 49 77 6 16 24 24 24 10z m-133 -215 c-10 -5 -14 -15 -10 -26 5 -13 3
-14 -6 -6 -10 9 -9 18 5 39 11 17 20 23 22 15 3 -7 -3 -17 -11 -22z m-35 -66
c-7 -2 -12 -11 -12 -20 0 -15 -39 -75 -40 -61 0 3 12 30 26 60 17 33 29 48 32
40 3 -8 0 -17 -6 -19z m-58 -89 c4 -10 4 -14 0 -10 -7 6 -14 -5 -51 -75 -8
-15 -19 -31 -25 -34 -6 -4 1 13 15 37 15 24 31 56 38 72 13 32 15 33 23 10z
m-93 -166 c-10 -18 -26 -48 -35 -66 -10 -18 -20 -31 -22 -28 -5 4 16 57 26 67
3 3 11 17 19 33 8 15 18 27 23 27 4 0 -1 -15 -11 -33z m-81 -122 c0 -8 -4 -15
-10 -15 -5 0 -7 7 -4 15 4 8 8 15 10 15 2 0 4 -7 4 -15z m-51 -101 c-36 -67
-50 -86 -56 -80 -5 4 25 64 37 76 3 3 13 23 24 45 10 22 21 35 23 29 2 -6 -11
-38 -28 -70z"/>
<path d="M1772 967 c-27 -29 -28 -61 -2 -87 57 -57 150 15 103 79 -27 36 -72
39 -101 8z m74 -9 c1 -2 5 -15 9 -30 5 -21 2 -29 -14 -38 -33 -17 -61 -4 -61
29 0 33 16 51 43 46 11 -3 21 -6 23 -7z"/>
<path d="M838 802 c-54 -92 -176 -298 -272 -458 l-174 -292 32 -6 c17 -4 32
-3 34 1 1 5 119 204 261 443 251 422 258 435 242 457 -9 12 -18 22 -21 22 -3
0 -49 -75 -102 -167z m104 110 c-7 -2 -12 -12 -12 -23 0 -10 -4 -19 -10 -19
-5 0 -10 -7 -10 -15 0 -9 -7 -18 -15 -21 -8 -4 -12 -11 -8 -17 3 -5 -1 -15 -9
-21 -8 -6 -15 -13 -15 -16 0 -12 -45 -91 -49 -87 -5 5 30 75 96 194 13 23 28
39 34 36 6 -4 6 -8 -2 -11z m-160 -264 c-7 -7 -12 -21 -12 -32 0 -14 -3 -17
-11 -9 -8 8 -6 18 6 37 10 15 20 24 23 21 3 -3 0 -11 -6 -17z m-69 -131 c-38
-67 -56 -85 -46 -47 3 11 9 20 14 20 5 0 9 7 9 15 0 20 53 101 57 88 2 -6 -13
-40 -34 -76z m-43 -81 c0 -3 -4 -8 -10 -11 -5 -3 -10 -1 -10 4 0 6 5 11 10 11
6 0 10 -2 10 -4z m-46 -53 c-10 -21 -21 -40 -24 -43 -3 -3 -12 -18 -18 -35
-23 -55 -69 -127 -76 -117 -3 6 1 18 10 26 8 9 12 16 7 16 -4 0 -1 6 7 13 8 7
35 51 60 99 44 86 68 115 34 41z m-129 -232 c-3 -12 -10 -19 -14 -17 -4 3 -14
-10 -21 -29 -8 -19 -18 -35 -22 -35 -9 0 12 45 40 88 17 27 27 23 17 -7z"/>
<path d="M2065 861 c-28 -12 -51 -41 -59 -73 l-6 -28 94 0 c111 0 140 9 161
49 29 58 25 61 -77 60 -51 0 -102 -4 -113 -8z m167 -20 c4 -1 3 -12 -3 -25
-13 -27 -44 -36 -130 -36 -63 0 -75 8 -55 35 17 24 96 34 188 26z"/>
<path d="M1020 821 c0 -7 -305 -528 -393 -670 l-20 -34 39 7 c21 4 42 12 47
19 4 7 86 147 182 311 164 281 174 301 169 337 -4 22 -10 39 -15 39 -5 0 -9
-4 -9 -9z m-23 -120 c-17 -33 -35 -57 -39 -55 -4 3 -8 -1 -8 -10 0 -8 -5 -16
-11 -18 -5 -2 -11 -10 -12 -18 -3 -16 -19 -48 -59 -120 -14 -25 -35 -62 -46
-83 -17 -32 -20 -34 -25 -17 -3 11 -1 18 4 14 8 -5 13 10 10 29 -1 5 3 6 8 3
5 -3 11 7 14 23 3 16 12 35 19 42 8 8 29 45 48 82 19 37 43 77 53 87 9 11 17
24 17 30 0 5 4 10 8 10 4 0 14 16 21 35 7 19 16 33 21 30 5 -3 -6 -32 -23 -64z
m-210 -341 c-1 -11 -5 -20 -9 -20 -4 0 -8 -7 -8 -16 0 -18 -39 -87 -52 -92 -4
-2 -8 -9 -8 -15 0 -13 -39 -67 -40 -55 0 13 24 62 50 103 14 22 33 57 43 78
19 41 27 47 24 17z"/>
<path d="M1630 769 l-31 -61 75 4 c87 3 92 -3 42 -53 -33 -35 -90 -59 -139
-59 -22 0 -31 -9 -52 -50 -14 -27 -25 -52 -25 -56 0 -3 39 -5 88 -2 72 3 96 9
140 33 87 47 150 145 159 247 l6 58 -116 0 -117 0 -30 -61z m220 30 c0 3 4 -1
9 -9 10 -15 4 -68 -10 -86 -5 -6 -7 -13 -4 -16 3 -3 -5 -16 -17 -30 -13 -14
-24 -32 -26 -39 -3 -14 -72 -79 -82 -76 -3 0 -22 -7 -44 -16 -37 -17 -126 -23
-139 -11 -3 4 0 19 8 34 11 22 23 28 61 34 63 8 126 46 149 90 25 45 13 59
-52 61 -27 1 -51 3 -55 4 -15 3 16 52 36 56 39 8 91 10 129 4 20 -4 37 -4 37
0z"/>
<path d="M1031 685 c-36 -60 -116 -195 -178 -299 -67 -111 -106 -185 -95 -181
9 4 28 11 42 16 19 7 61 69 163 241 134 225 138 234 135 283 l-3 50 -64 -110z
m39 4 c-7 -11 -14 -19 -16 -16 -7 7 7 37 17 37 6 0 5 -9 -1 -21z m-52 -97
c-19 -34 -44 -74 -57 -89 -12 -15 -27 -40 -33 -55 -5 -16 -14 -28 -19 -28 -5
0 -8 -3 -7 -7 2 -13 -14 -44 -54 -108 -21 -33 -38 -55 -38 -48 0 6 5 15 10 18
6 3 10 15 10 26 0 10 4 19 9 19 5 0 11 10 13 23 2 12 9 21 16 19 8 -1 11 2 7
8 -3 5 2 22 13 38 10 15 24 42 31 60 8 17 17 32 22 32 5 0 9 7 9 16 0 8 5 12
10 9 6 -3 10 1 10 9 0 9 3 16 8 16 4 0 13 15 21 33 18 41 43 79 48 74 2 -2
-11 -32 -29 -65z"/>
<path d="M2005 610 l0 -120 53 0 52 0 0 120 0 120 -52 0 -53 0 0 -120z m75 -5
c0 -95 0 -95 -25 -95 -25 0 -25 0 -25 95 0 95 0 95 25 95 25 0 25 0 25 -95z"/>
<path d="M1070 611 c-11 -23 -69 -122 -129 -221 -60 -99 -105 -180 -100 -180
5 0 45 35 88 77 89 89 130 164 155 283 8 41 13 76 11 78 -2 2 -13 -15 -25 -37z
m-28 -118 c-52 -100 -63 -118 -73 -115 -7 2 -9 -4 -5 -13 3 -9 2 -13 -4 -10
-6 3 -10 1 -10 -5 0 -6 -10 -21 -22 -33 -20 -21 -20 -21 2 18 13 22 30 46 38
53 9 6 12 12 6 12 -5 0 -5 3 1 8 6 4 17 21 25 37 23 46 42 76 47 71 2 -2 0
-12 -5 -23z"/>
<path d="M1263 394 c-15 -23 -15 -29 -2 -52 8 -14 21 -30 30 -35 24 -15 64 -1
77 28 11 23 10 25 -13 25 -14 0 -28 0 -32 1 -4 0 -9 -4 -11 -10 -2 -6 7 -11
20 -12 l23 0 -24 -12 c-20 -10 -26 -8 -42 12 -15 18 -16 27 -8 43 9 16 18 19
45 15 35 -6 56 6 28 17 -37 14 -74 6 -91 -20z"/>
<path d="M1393 360 c2 -59 2 -60 29 -60 19 0 28 5 28 16 0 10 -6 14 -15 10
-12 -4 -15 4 -15 44 0 36 -4 50 -14 50 -11 0 -14 -15 -13 -60z"/>
<path d="M1477 402 c-23 -25 -21 -58 3 -82 24 -24 48 -25 78 -4 26 18 30 65 6
88 -21 22 -67 20 -87 -2z m71 -14 c18 -18 14 -46 -7 -58 -25 -13 -48 -4 -56
21 -12 38 35 65 63 37z"/>
<path d="M1601 361 c0 -57 2 -61 23 -61 35 0 61 23 51 46 -5 10 -9 30 -9 44
-1 21 -7 26 -33 28 l-31 3 -1 -60z m49 30 c0 -6 -4 -13 -10 -16 -5 -3 -10 1
-10 9 0 9 5 16 10 16 6 0 10 -4 10 -9z m7 -48 c2 -6 -3 -13 -12 -16 -10 -5
-15 0 -15 14 0 21 21 22 27 2z"/>
<path d="M1712 363 c-22 -58 -20 -82 2 -50 17 22 45 22 62 0 7 -10 16 -15 19
-11 11 10 -35 118 -50 118 -7 0 -22 -26 -33 -57z m48 -5 c0 -5 -6 -8 -14 -8
-9 0 -12 7 -9 21 4 16 8 17 14 7 5 -7 9 -16 9 -20z"/>
<path d="M1820 360 c0 -60 0 -60 30 -60 20 0 30 5 30 15 0 8 -9 15 -20 15 -17
0 -20 7 -20 45 0 25 -4 45 -10 45 -6 0 -10 -27 -10 -60z"/>
<path d="M1940 360 c0 -33 4 -60 10 -60 6 0 10 14 10 30 0 23 4 30 20 30 11 0
20 5 20 10 0 6 -9 10 -20 10 -11 0 -20 5 -20 10 0 6 9 10 20 10 11 0 20 5 20
10 0 6 -13 10 -30 10 -30 0 -30 0 -30 -60z"/>
<path d="M2010 360 c0 -47 3 -60 15 -60 12 0 15 13 15 60 0 47 -3 60 -15 60
-12 0 -15 -13 -15 -60z"/>
<path d="M2060 359 c0 -44 3 -60 12 -57 8 3 12 19 10 41 -2 20 -1 37 2 37 2 0
15 -18 27 -40 33 -59 49 -52 49 20 0 48 -3 60 -16 60 -13 0 -15 -8 -12 -35 2
-19 1 -35 -2 -35 -3 0 -14 16 -24 35 -30 55 -46 46 -46 -26z"/>
<path d="M2180 360 l0 -60 35 0 c24 0 35 5 35 15 0 9 -9 15 -25 15 -16 0 -25
6 -25 15 0 9 9 15 25 15 14 0 25 5 25 10 0 6 -11 10 -25 10 -14 0 -25 5 -25
10 0 6 11 10 25 10 14 0 25 5 25 10 0 6 -16 10 -35 10 l-35 0 0 -60z"/>
<path d="M2317 414 c-13 -13 -7 -34 13 -51 21 -18 27 -43 11 -43 -6 0 -13 5
-16 10 -4 6 -11 8 -16 4 -14 -8 9 -34 32 -34 10 0 23 9 29 20 9 17 6 25 -15
46 -31 30 -32 37 -4 29 15 -5 20 -3 17 6 -5 15 -40 24 -51 13z"/>
<path d="M2400 360 c0 -60 0 -60 30 -60 21 0 30 5 30 16 0 11 -6 15 -20 11
-15 -4 -20 0 -20 14 0 12 7 19 20 19 11 0 20 5 20 10 0 6 -9 10 -20 10 -11 0
-20 5 -20 10 0 6 9 10 20 10 11 0 20 5 20 10 0 6 -13 10 -30 10 -30 0 -30 0
-30 -60z"/>
<path d="M2480 360 c0 -47 3 -60 15 -60 12 0 14 7 10 28 -6 26 -6 26 9 8 9
-11 16 -23 16 -28 0 -4 7 -8 15 -8 14 0 14 3 1 28 -10 19 -11 32 -3 43 16 26
1 49 -33 49 l-30 0 0 -60z m48 29 c-2 -6 -8 -10 -13 -10 -5 0 -11 4 -13 10 -2
6 4 11 13 11 9 0 15 -5 13 -11z"/>
<path d="M2575 399 c22 -69 33 -93 42 -96 6 -2 21 21 32 52 24 64 24 65 11 65
-6 0 -15 -12 -21 -27 -5 -16 -12 -35 -15 -43 -4 -10 -10 -1 -18 24 -6 22 -17
41 -25 44 -10 3 -11 -2 -6 -19z"/>
<path d="M2690 360 c0 -33 4 -60 10 -60 6 0 10 27 10 60 0 33 -4 60 -10 60 -6
0 -10 -27 -10 -60z"/>
<path d="M2747 402 c-23 -25 -21 -58 3 -82 24 -24 63 -26 80 -5 16 20 5 32
-14 16 -34 -28 -83 22 -55 55 9 11 23 14 47 10 23 -3 32 -1 29 7 -6 21 -71 20
-90 -1z"/>
<path d="M2860 360 l0 -60 35 0 c25 0 35 4 35 16 0 10 -7 14 -22 12 -15 -2
-23 2 -23 12 0 8 10 16 23 18 30 5 28 22 -3 22 -14 0 -25 5 -25 10 0 6 11 10
25 10 14 0 25 5 25 10 0 6 -16 10 -35 10 l-35 0 0 -60z"/>
<path d="M1537 243 c-10 -9 -8 -75 1 -69 8 5 15 76 8 76 -1 0 -6 -3 -9 -7z"/>
<path d="M1733 210 c0 -25 2 -35 4 -22 2 12 2 32 0 45 -2 12 -4 2 -4 -23z"/>
<path d="M1773 210 c0 -25 2 -35 4 -22 2 12 2 32 0 45 -2 12 -4 2 -4 -23z"/>
<path d="M1800 240 c0 -5 5 -10 10 -10 6 0 10 5 10 10 0 6 -4 10 -10 10 -5 0
-10 -4 -10 -10z"/>
<path d="M1848 238 c-2 -7 -1 -26 2 -43 l6 -30 5 32 c6 34 -4 66 -13 41z"/>
<path d="M2302 239 c-1 -9 -10 -16 -19 -15 -13 1 -18 -6 -18 -23 0 -27 13 -35
33 -22 9 5 12 21 9 42 -2 19 -5 27 -5 18z m-2 -40 c0 -5 -7 -9 -15 -9 -15 0
-20 12 -9 23 8 8 24 -1 24 -14z"/>
<path d="M2340 234 c0 -8 5 -12 10 -9 6 4 8 11 5 16 -9 14 -15 11 -15 -7z"/>
<path d="M2470 208 c0 -49 6 -47 13 5 3 20 1 37 -4 37 -5 0 -9 -19 -9 -42z"/>
<path d="M2519 243 c-4 -41 -4 -65 2 -69 4 -2 9 14 11 36 2 22 0 40 -4 40 -5
0 -8 -3 -9 -7z"/>
<path d="M2643 210 c0 -25 2 -35 4 -22 2 12 2 32 0 45 -2 12 -4 2 -4 -23z"/>
<path d="M1352 208 c2 -22 9 -34 21 -36 9 -2 17 1 17 7 0 6 -7 11 -16 11 -12
0 -15 7 -12 25 3 14 1 25 -4 25 -5 0 -8 -15 -6 -32z"/>
<path d="M1976 232 c-3 -5 -2 -22 3 -38 l8 -29 5 33 c4 31 -5 52 -16 34z"/>
<path d="M1417 224 c-13 -13 -7 -42 10 -48 9 -4 21 -1 27 5 8 9 7 10 -6 6 -10
-3 -20 -2 -23 3 -4 6 3 10 15 10 13 0 20 5 18 13 -5 14 -31 21 -41 11z"/>
<path d="M1581 216 c-15 -18 9 -49 32 -40 24 9 22 49 -2 51 -11 1 -24 -4 -30
-11z m37 -14 c2 -7 -3 -12 -12 -12 -9 0 -16 7 -16 16 0 17 22 14 28 -4z"/>
<path d="M1660 214 c-19 -22 10 -51 36 -35 18 10 17 10 -4 11 -15 0 -22 5 -19
13 2 6 12 11 22 9 10 -2 14 1 10 7 -9 16 -31 13 -45 -5z"/>
<path d="M1897 224 c-13 -13 -7 -42 10 -48 21 -8 36 6 31 30 -3 19 -29 30 -41
18z m28 -34 c-5 -8 -11 -8 -17 -2 -6 6 -7 16 -3 22 5 8 11 8 17 2 6 -6 7 -16
3 -22z"/>
<path d="M2024 216 c-13 -35 24 -64 42 -34 5 8 2 9 -9 5 -9 -3 -19 -2 -22 3
-4 6 3 10 15 10 13 0 20 5 18 13 -7 18 -37 21 -44 3z"/>
<path d="M2097 223 c-10 -16 11 -55 26 -50 7 2 13 17 14 33 1 20 0 22 -4 7 -2
-13 -8 -23 -13 -23 -5 0 -10 10 -12 23 -2 15 -6 18 -11 10z"/>
<path d="M2168 205 c-3 -14 -2 -28 2 -30 4 -3 10 9 12 25 5 36 -8 40 -14 5z"/>
<path d="M2389 214 c-10 -12 -9 -18 3 -30 19 -19 48 -8 48 20 0 26 -32 32 -51
10z m36 -12 c0 -18 -20 -15 -23 4 -3 10 1 15 10 12 7 -3 13 -10 13 -16z"/>
<path d="M2567 223 c-10 -9 -8 -41 2 -47 18 -11 41 6 41 30 0 17 -6 24 -18 24
-10 0 -22 -3 -25 -7z m28 -33 c-5 -8 -11 -8 -17 -2 -6 6 -7 16 -3 22 5 8 11 8
17 2 6 -6 7 -16 3 -22z"/>
<path d="M2670 199 c0 -18 4 -28 10 -24 6 4 8 11 4 16 -3 5 0 16 6 24 10 12 9
15 -4 15 -11 0 -16 -9 -16 -31z"/>
<path d="M2724 216 c-13 -35 24 -64 42 -34 5 8 2 9 -9 5 -9 -3 -19 -2 -22 3
-4 6 3 10 15 10 13 0 20 5 18 13 -7 18 -37 21 -44 3z"/>
<path d="M2795 221 c-3 -5 -1 -12 4 -15 5 -3 11 1 15 9 6 16 -9 21 -19 6z"/>
<path d="M1800 201 c0 -11 5 -23 10 -26 6 -4 10 5 10 19 0 14 -4 26 -10 26 -5
0 -10 -9 -10 -19z"/>
<path d="M2801 191 c-9 -6 -10 -11 -2 -15 13 -8 31 1 31 15 0 11 -11 11 -29 0z"/>
</g>
</svg>
